HIERARCHY
ROOT SpineBase
{
  OFFSET 0.000000 0.000000 0.000000
  CHANNELS 6 Xposition Yposition Zposition Zrotation Xrotation Yrotation
  JOINT SpineMid
  {
    OFFSET 0.000000 29.795484 0.000000
    CHANNELS 3 Zrotation Xrotation Yrotation
    JOINT SpineShoulder
    {
      OFFSET -0.237727 22.055730 -0.680355
      CHANNELS 3 Zrotation Xrotation Yrotation
      JOINT Neck
      {
        OFFSET -0.164276 7.270282 -0.529324
        CHANNELS 3 Zrotation Xrotation Yrotation
        JOINT Head
        {
          OFFSET -1.474434 15.297296 -0.696272
          CHANNELS 3 Zrotation Xrotation Yrotation
          End Site
          {
            OFFSET 0 0 0
          }
        }
      }
      JOINT ShoulderLeft
      {
        OFFSET -16.483377 -3.022988 7.431109
        CHANNELS 3 Zrotation Xrotation Yrotation
        JOINT ElbowLeft
        {
          OFFSET -4.767317 -25.683209 0.650391
          CHANNELS 3 Zrotation Xrotation Yrotation
          JOINT WristLeft
          {
            OFFSET -2.150257 -20.885012 -6.406571
            CHANNELS 3 Zrotation Xrotation Yrotation
            JOINT HandLeft
            {
              OFFSET -0.681622 -5.710192 -1.049728
              CHANNELS 3 Zrotation Xrotation Yrotation
              JOINT HandTipLeft
              {
                OFFSET -1.068616 -5.898273 -2.095133
                CHANNELS 3 Zrotation Xrotation Yrotation
                End Site
                {
                  OFFSET 0 0 0
                }
              }
              JOINT ThumbLeft
              {
                OFFSET -3.467282 0.340880 -1.722806
                CHANNELS 3 Zrotation Xrotation Yrotation
                End Site
                {
                  OFFSET 0 0 0
                }
              }
            }
          }
        }
      }
      JOINT ShoulderRight
      {
        OFFSET 14.391689 -3.941175 -8.164424
        CHANNELS 3 Zrotation Xrotation Yrotation
        JOINT ElbowRight
        {
          OFFSET 3.642417 -23.479333 -1.612908
          CHANNELS 3 Zrotation Xrotation Yrotation
          JOINT WristRight
          {
            OFFSET -4.585606 -19.315968 -6.001373
            CHANNELS 3 Zrotation Xrotation Yrotation
            JOINT HandRight
            {
              OFFSET -3.487058 -7.307289 0.152925
              CHANNELS 3 Zrotation Xrotation Yrotation
              JOINT HandTipRight
              {
                OFFSET -1.528116 -5.901543 -1.803140
                CHANNELS 3 Zrotation Xrotation Yrotation
                End Site
                {
                  OFFSET 0 0 0
                }
              }
              JOINT ThumbRight
              {
                OFFSET -2.905240 0.016945 -2.445568
                CHANNELS 3 Zrotation Xrotation Yrotation
                End Site
                {
                  OFFSET 0 0 0
                }
              }
            }
          }
        }
      }
    }
  }
  JOINT HipLeft
  {
    OFFSET -7.812141 0.466885 -0.496715
    CHANNELS 3 Zrotation Xrotation Yrotation
    JOINT KneeLeft
    {
      OFFSET -2.044477 -28.350697 -0.907420
      CHANNELS 3 Zrotation Xrotation Yrotation
      JOINT AnkleLeft
      {
        OFFSET 6.274412 -37.657765 8.848956
        CHANNELS 3 Zrotation Xrotation Yrotation
        JOINT FootLeft
        {
          OFFSET -1.580090 -7.088918 -6.523824
          CHANNELS 3 Zrotation Xrotation Yrotation
          End Site
          {
            OFFSET 0 0 0
          }
        }
      }
    }
  }
  JOINT HipRight
  {
    OFFSET 6.032261 0.488670 -6.412484
    CHANNELS 3 Zrotation Xrotation Yrotation
    JOINT KneeRight
    {
      OFFSET 7.712771 -31.845238 -3.450430
      CHANNELS 3 Zrotation Xrotation Yrotation
      JOINT AnkleRight
      {
        OFFSET 7.322922 -34.308222 5.790831
        CHANNELS 3 Zrotation Xrotation Yrotation
        JOINT FootRight
        {
          OFFSET -0.330723 -8.090594 -5.811413
          CHANNELS 3 Zrotation Xrotation Yrotation
          End Site
          {
            OFFSET 0 0 0
          }
        }
      }
    }
  }
}
MOTION
Frames: 6
Frame Time: 0.033333
90.839698 77.162566 351.362476 -1.070761 -1.168007 25.892277 -0.471029 0.082819 -25.960600 -0.074992 -0.003513 -0.084257 3.825237 0.399222 0.108086 0.000000 0.000000 0.000000 3.381095 3.521945 -0.313815 7.395618 -1.548106 -2.262404 4.334997 16.249670 -3.558500 0.411362 -16.168512 1.673727 0.000000 0.000000 0.000000 0.000000 0.000000 0.000000 5.281604 1.097055 -0.233970 -6.701921 -3.232520 1.971444 7.941436 5.609131 -3.322479 5.382875 -14.718828 2.830899 0.000000 0.000000 0.000000 0.000000 0.000000 0.000000 0.833395 2.937169 -25.972147 0.037019 -3.120488 -0.543545 2.316711 -0.839443 0.356582 0.000000 0.000000 0.000000 2.140594 2.784195 -25.341672 -1.428421 -5.895646 -1.773693 0.024323 4.714583 2.235416 0.000000 0.000000 0.000000
91.313981 76.356265 350.869414 -2.004352 -1.496380 26.951595 -0.606684 0.099154 -27.070894 -0.015280 -0.001901 -0.129450 3.834482 0.633761 0.117581 0.000000 0.000000 0.000000 1.184161 4.128948 -0.226467 16.686988 -8.213982 -2.205329 -5.659058 23.887414 -1.802871 4.964640 -18.269089 2.215949 0.000000 0.000000 0.000000 0.000000 0.000000 0.000000 8.621911 1.573964 -0.413686 -11.455506 -5.023326 3.112806 7.733881 7.895155 -4.884312 5.681077 -15.116217 3.732005 0.000000 0.000000 0.000000 0.000000 0.000000 0.000000 1.742046 4.906506 -27.131648 1.179907 -6.164645 -0.635830 2.229592 -0.330257 0.706682 0.000000 0.000000 0.000000 2.260862 4.420612 -25.920708 0.776558 -8.547612 -2.373070 -0.411087 4.903169 2.311429 0.000000 0.000000 0.000000
92.014048 75.245206 350.379362 -3.442147 -2.163781 26.536061 -0.417739 0.017607 -26.742069 0.062359 -0.001797 -0.184699 2.106872 1.508944 0.148591 0.000000 0.000000 0.000000 0.042962 1.829734 0.385114 20.770676 -1.279841 -5.091158 -11.202139 20.207067 0.502348 7.768011 -18.826279 2.364461 0.000000 0.000000 0.000000 0.000000 0.000000 0.000000 11.486921 1.571712 -0.666353 -15.272386 -4.651328 4.049083 4.443408 8.089225 -5.076231 7.382638 -11.647802 3.385452 0.000000 0.000000 0.000000 0.000000 0.000000 0.000000 2.586351 7.348087 -26.775737 3.197415 -9.494732 -0.639541 2.479754 -0.455717 0.746725 0.000000 0.000000 0.000000 3.333023 7.018408 -24.815497 1.895581 -12.643817 -3.529050 -0.356996 5.411647 2.951748 0.000000 0.000000 0.000000
93.107066 73.992259 349.828706 -4.869152 -2.977068 25.015910 -0.430211 -0.009582 -25.336911 0.103988 0.018148 -0.251736 -1.293656 2.934347 0.333009 0.000000 0.000000 0.000000 -7.806787 2.489668 0.726282 35.053703 1.021068 -7.207385 -23.298246 22.187675 3.463452 13.994395 -21.241431 3.497711 0.000000 0.000000 0.000000 0.000000 0.000000 0.000000 13.731371 0.946336 -0.941566 -18.058351 -1.775808 4.922086 1.503631 5.556655 -4.519684 6.900600 -5.140269 2.458827 0.000000 0.000000 0.000000 0.000000 0.000000 0.000000 2.323840 9.787642 -25.143543 6.077848 -12.332752 -0.579240 2.915544 -0.631678 0.524633 0.000000 0.000000 0.000000 4.612075 10.463033 -22.454140 2.017609 -17.255322 -5.104951 -0.643380 4.570341 4.592913 0.000000 0.000000 0.000000
94.488407 72.765063 349.272130 -6.187288 -3.857377 21.708065 -0.212030 -0.048998 -22.156717 0.141989 0.042566 -0.305047 -6.519432 4.927792 0.841909 0.000000 0.000000 0.000000 -13.242953 2.473967 1.171995 43.748418 20.626318 -13.792620 -26.326359 19.496191 0.011329 16.958715 -23.647376 5.827232 0.000000 0.000000 0.000000 0.000000 0.000000 0.000000 14.665987 0.167586 -1.153803 -18.420570 0.621850 5.516930 -6.452648 5.736679 -4.272138 10.130745 3.451285 2.367501 0.000000 0.000000 0.000000 0.000000 0.000000 0.000000 0.605056 10.999589 -21.457941 9.271239 -13.285188 -0.581973 3.205150 -5.517327 1.598141 0.000000 0.000000 0.000000 5.829534 15.100258 -18.101214 -0.139944 -23.377672 -8.031431 0.416795 7.945774 6.375846 0.000000 0.000000 0.000000
96.590025 72.232613 348.562447 -7.864952 -4.518808 16.508547 0.037096 -0.075653 -17.116140 0.174908 0.056418 -0.370475 -12.269003 6.091323 1.487849 0.000000 0.000000 0.000000 -16.809282 2.292365 1.570207 45.284183 46.653830 -18.581014 -18.534987 11.131131 -4.561125 18.268745 -19.257651 6.248161 0.000000 0.000000 0.000000 0.000000 0.000000 0.000000 13.853889 -1.313245 -1.177342 -15.305644 5.388354 5.267450 -16.732456 6.687042 -4.396860 17.426903 9.048550 3.280055 0.000000 0.000000 0.000000 0.000000 0.000000 0.000000 -1.758651 9.680993 -15.808706 10.486400 -11.113491 -1.403525 4.950678 -5.916298 1.526163 0.000000 0.000000 0.000000 7.944928 19.667366 -12.126349 -4.597703 -29.200328 -11.660411 2.629155 13.321503 6.822449 0.000000 0.000000 0.000000
